<?xml version="1.0" ?><svg height="32" id="svg2" version="1.1" viewBox="0 0 32 32" width="32" xml:space="preserve" xmlns="http://www.w3.org/2000/svg" xmlns:cc="http://creativecommons.org/ns#" xmlns:dc="http://purl.org/dc/elements/1.1/" xmlns:inkscape="http://www.inkscape.org/namespaces/inkscape" xmlns:rdf="http://www.w3.org/1999/02/22-rdf-syntax-ns#" xmlns:sodipodi="http://sodipodi.sourceforge.net/DTD/sodipodi-0.dtd" xmlns:svg="http://www.w3.org/2000/svg"><defs id="defs6"/><g id="g10" transform="matrix(1.3333333,0,0,-1.3333333,0,32)"><path d="M 12.14991,18.805524 A 6.6653094,6.6653094 0 0 0 16.9344,16.791234 6.6653094,6.6653094 0 0 0 16.81105,7.3658521 6.6653094,6.6653094 0 0 0 8.6448506,6.4867351 l 0.063,-0.06118 -2.61527,-0.937108 1.00812,2.314824 a 6.6653094,6.6653094 0 0 0 0.4083,9.1113329 6.6653094,6.6653094 0 0 0 4.6408794,1.89092 z" id="path941" style="fill:none;stroke:#333333;stroke-width:0.77400002;stroke-linecap:round;stroke-linejoin:round;stroke-miterlimit:4;stroke-dasharray:none;stroke-opacity:1"/><circle cx="9.6361694" cy="-12.036508" id="circle1300" r="0.69950414" style="fill:#333333;fill-opacity:1;stroke:none;stroke-width:0.69573557;stroke-linecap:round;stroke-linejoin:round;stroke-miterlimit:4;stroke-dasharray:none;stroke-opacity:1" transform="scale(1,-1)"/><circle cx="12.274857" cy="-12.036508" id="circle1302" r="0.69950414" style="fill:#333333;fill-opacity:1;stroke:none;stroke-width:0.69573557;stroke-linecap:round;stroke-linejoin:round;stroke-miterlimit:4;stroke-dasharray:none;stroke-opacity:1" transform="scale(1,-1)"/><circle cx="14.913583" cy="-12.036508" id="circle1304" r="0.69950414" style="fill:#333333;fill-opacity:1;stroke:none;stroke-width:0.69573557;stroke-linecap:round;stroke-linejoin:round;stroke-miterlimit:4;stroke-dasharray:none;stroke-opacity:1" transform="scale(1,-1)"/></g></svg>